<svg width="48" xmlns="http://www.w3.org/2000/svg" height="68.364" id="screenshot-eedf1b5d-9090-807d-8004-e31c57fdc213" viewBox="0 0 48 68.364" xmlns:xlink="http://www.w3.org/1999/xlink" fill="none" version="1.1"><g id="shape-eedf1b5d-9090-807d-8004-e31c57fdc213"><g fill="none"><g class="fills" id="fills-eedf1b5d-9090-807d-8004-e31c57fdc213"><rect rx="0" ry="0" x="0" y="0" width="48" height="68.36363636363649" transform="matrix(1.000000, 0.000000, 0.000000, 1.000000, 0.000000, 0.000000)" class="frame-background"/></g><g class="frame-children"><g id="shape-eedf1b5d-9090-807d-8004-e31c517aa08a" width="66" height="94" rx="0" ry="0" style="fill: rgb(0, 0, 0);"><g id="shape-eedf1b5d-9090-807d-8004-e31c517aa08c"><g class="fills" id="fills-eedf1b5d-9090-807d-8004-e31c517aa08c"><path d="M35.566,22.613L12.247,22.613L12.247,45.933L35.566,45.933L35.566,22.613ZZ" fill="none" style="fill: none;"/></g><g fill="none" id="strokes-eedf1b5d-9090-807d-8004-e31c517aa08c" class="strokes"><g class="stroke-shape"><path d="M35.566,22.613L12.247,22.613L12.247,45.933L35.566,45.933L35.566,22.613ZZ" style="fill: none; stroke-width: 1.6; stroke: rgb(255, 254, 227); stroke-opacity: 1;"/></g></g></g><g id="shape-eedf1b5d-9090-807d-8004-e31c517aa08d"><g class="fills" id="fills-eedf1b5d-9090-807d-8004-e31c517aa08d"><path d="M24.047,11.094L0.727,11.094L0.727,34.414L24.047,34.414L24.047,11.094ZZ" fill="none" style="fill: none;"/></g><g fill="none" id="strokes-eedf1b5d-9090-807d-8004-e31c517aa08d" class="strokes"><g class="stroke-shape"><path d="M24.047,11.094L0.727,11.094L0.727,34.414L24.047,34.414L24.047,11.094ZZ" style="fill: none; stroke-width: 1.6; stroke: rgb(255, 254, 227); stroke-opacity: 1;"/></g></g></g><g id="shape-eedf1b5d-9090-807d-8004-e31c517aa08e"><g class="fills" id="fills-eedf1b5d-9090-807d-8004-e31c517aa08e"><path d="M47.273,34.320L23.953,34.320L23.953,57.640L47.273,57.640L47.273,34.320ZZ" fill="none" style="fill: none;"/></g><g fill="none" id="strokes-eedf1b5d-9090-807d-8004-e31c517aa08e" class="strokes"><g class="stroke-shape"><path d="M47.273,34.320L23.953,34.320L23.953,57.640L47.273,57.640L47.273,34.320ZZ" style="fill: none; stroke-width: 1.6; stroke: rgb(255, 254, 227); stroke-opacity: 1;"/></g></g></g><g id="shape-eedf1b5d-9090-807d-8004-e31c517aa08f"><g class="fills" id="fills-eedf1b5d-9090-807d-8004-e31c517aa08f"><path d="M40.489,34.234L24.001,17.745L7.512,34.234L24.001,50.722L40.489,34.234ZZ" fill="none" style="fill: none;"/></g><g fill="none" id="strokes-eedf1b5d-9090-807d-8004-e31c517aa08f" class="strokes"><g class="stroke-shape"><path d="M40.489,34.234L24.001,17.745L7.512,34.234L24.001,50.722L40.489,34.234ZZ" style="fill: none; stroke-width: 1.6; stroke: rgb(255, 254, 227); stroke-opacity: 1;"/></g></g></g><g id="shape-eedf1b5d-9090-807d-8004-e31c517aa090"><g class="fills" id="fills-eedf1b5d-9090-807d-8004-e31c517aa090"><path d="M40.489,17.943L24.001,1.455L7.512,17.943L24.001,34.432L40.489,17.943ZZ" fill="none" style="fill: none;"/></g><g fill="none" id="strokes-eedf1b5d-9090-807d-8004-e31c517aa090" class="strokes"><g class="stroke-shape"><path d="M40.489,17.943L24.001,1.455L7.512,17.943L24.001,34.432L40.489,17.943ZZ" style="fill: none; stroke-width: 1.6; stroke: rgb(255, 254, 227); stroke-opacity: 1;"/></g></g></g><g id="shape-eedf1b5d-9090-807d-8004-e31c517aa091"><g class="fills" id="fills-eedf1b5d-9090-807d-8004-e31c517aa091"><path d="M40.489,50.789L24.001,34.301L7.512,50.789L24.001,67.278L40.489,50.789ZZ" fill="none" style="fill: none;"/></g><g fill="none" id="strokes-eedf1b5d-9090-807d-8004-e31c517aa091" class="strokes"><g class="stroke-shape"><path d="M40.489,50.789L24.001,34.301L7.512,50.789L24.001,67.278L40.489,50.789ZZ" style="fill: none; stroke-width: 1.6; stroke: rgb(255, 254, 227); stroke-opacity: 1;"/></g></g></g></g></g></g></g></svg>